<?xml version="1.0" encoding="UTF-8"?>
<svg version="1.1" xmlns="http://www.w3.org/2000/svg" width="1000" height="1000">
<path d="M0,0 L13,0 L261,248 L269,255 L309,295 L309,702 L262,749 L254,756 L213,797 L205,804 L164,845 L156,852 L114,894 L106,901 L57,950 L49,957 L18,988 L12,989 L-57,990 L-316,991 L-390,991 L-436,945 L-444,938 L-518,864 L-526,857 L-610,773 L-618,766 L-683,701 L-683,490 L-682,318 L-681,294 L-648,261 L-640,254 L-388,2 L-250,1 Z M-264,50 L-368,51 L-599,282 L-607,289 L-633,315 L-633,682 L-582,733 L-574,740 L-496,818 L-488,825 L-414,899 L-406,906 L-371,941 L-78,941 L-3,940 L27,910 L35,903 L70,868 L78,861 L124,815 L132,808 L180,760 L188,753 L228,713 L236,706 L259,683 L259,314 L252,307 L244,300 L-6,50 Z " fill="#000000" transform="translate(690,7)"/>
<path d="M0,0 L259,0 L267,1 L269,3 L269,13 L263,33 L259,40 L256,41 L221,42 L1,42 L-6,40 L-11,32 L-18,12 L-18,5 L-13,1 Z " fill="#1D4ED8" transform="translate(375,96)"/>
<path d="M0,0 L7,0 L23,7 L34,13 L36,19 L31,27 L-1,59 L-9,66 L-72,129 L-80,136 L-107,163 L-115,170 L-144,199 L-152,206 L-161,215 L-165,218 L-170,217 L-176,210 L-184,194 L-186,189 L-186,183 L-170,166 L-107,103 L-99,96 L-49,46 L-41,39 L-10,8 Z " fill="#1D4ED8" transform="translate(848,670)"/>
<path d="M0,0 L11,0 L27,5 L35,9 L37,11 L38,41 L38,273 L32,278 L18,284 L9,287 L2,287 L-3,282 L-3,2 Z " fill="#15803D" transform="translate(101,360)"/>
<path d="M0,0 L9,1 L25,9 L32,13 L33,15 L33,22 L29,28 L10,47 L2,54 L-76,132 L-84,139 L-123,178 L-131,185 L-136,189 L-141,187 L-148,177 L-157,160 L-156,154 L-149,147 L-142,139 L-94,91 L-86,84 L-15,13 L-7,6 Z " fill="#1D4ED8" transform="translate(794,647)"/>
<path d="M0,0 L219,0 L223,4 L230,22 L232,29 L232,37 L229,39 L224,40 L161,41 L81,41 L-8,40 L-11,38 L-11,25 L-6,7 L-2,1 Z " fill="#15803D" transform="translate(384,818)"/>
<path d="M0,0 L5,1 L13,12 L21,26 L21,32 L10,45 L-97,152 L-105,159 L-134,188 L-138,189 L-149,185 L-164,177 L-169,173 L-169,166 L-160,156 L-129,125 L-121,118 L-49,46 L-41,39 L-11,9 L-3,2 Z " fill="#15803D" transform="translate(343,175)"/>
<path d="M0,0 L60,0 L63,4 L63,15 L57,36 L51,41 L45,42 L-86,43 L-114,43 L-121,35 L-127,22 L-129,16 L-129,6 L-125,1 Z " fill="#1D4ED8" transform="translate(533,208)"/>
<path d="M0,0 L10,1 L26,8 L34,15 L34,21 L25,32 L-16,73 L-24,80 L-64,120 L-72,127 L-86,141 L-94,148 L-100,152 L-105,151 L-109,146 L-119,127 L-120,124 L-120,117 L-113,109 L-71,67 L-63,60 L-32,29 L-24,22 L-8,6 Z " fill="#1D4ED8" transform="translate(737,623)"/>
<path d="M0,0 L6,0 L14,9 L24,27 L23,33 L16,42 L4,55 L-21,80 L-28,88 L-69,129 L-76,137 L-93,154 L-105,152 L-121,145 L-128,139 L-128,132 L-120,122 L-105,107 L-98,99 L-71,72 L-64,64 L-32,32 L-25,24 L-3,2 Z " fill="#15803D" transform="translate(361,234)"/>
<path d="M0,0 L7,1 L15,8 L41,34 L49,41 L74,66 L81,74 L125,118 L123,131 L115,147 L110,153 L103,154 L89,140 L81,133 L-14,38 L-21,30 L-27,23 L-27,16 L-16,8 Z " fill="#15803D" transform="translate(251,624)"/>
<path d="M0,0 L8,0 L8,122 L3,127 L-9,133 L-20,137 L-29,137 L-33,133 L-34,125 L-34,2 L-33,1 Z " fill="#1D4ED8" transform="translate(609,517)"/>
<path d="M0,0 L42,1 L42,117 L41,131 L38,133 L31,133 L10,127 L2,122 L1,114 Z " fill="#1D4ED8" transform="translate(858,516)"/>
<path d="M0,0 L8,0 L14,3 L54,43 L61,51 L81,71 L88,79 L89,80 L88,87 L81,95 L68,107 L62,108 L56,104 L44,93 L6,55 L-2,48 L-18,32 L-26,21 L-27,14 L-22,10 L-3,1 Z " fill="#15803D" transform="translate(137,672)"/>
<path d="M0,0 L7,0 L11,5 L19,23 L21,33 L16,43 L1,57 L-18,76 L-26,83 L-49,106 L-57,113 L-60,115 L-65,115 L-75,106 L-84,97 L-88,91 L-87,86 L-76,74 L-48,46 L-41,38 L-31,29 L-4,2 Z " fill="#15803D" transform="translate(317,123)"/>
<path d="M0,0 L6,1 L18,13 L26,20 L79,73 L84,77 L92,88 L93,94 L87,99 L70,107 L64,109 L57,109 L47,100 L34,88 L16,70 L9,62 L-14,39 L-21,31 L-23,29 L-23,23 L-16,14 L-4,3 Z " fill="#1D4ED8" transform="translate(796,230)"/>
<path d="M0,0 L114,0 L119,2 L129,23 L132,31 L132,37 L128,40 L79,41 L42,41 L3,40 L-1,36 L-3,25 L-3,3 Z " fill="#15803D" transform="translate(507,874)"/>
<path d="M0,0 L108,0 L115,3 L117,13 L117,31 L114,37 L111,40 L88,41 L-11,41 L-17,37 L-16,29 L-7,8 L-3,2 Z " fill="#15803D" transform="translate(367,873)"/>
<path d="M0,0 L5,1 L77,73 L85,83 L85,90 L78,109 L72,119 L67,120 L59,112 L51,105 L-12,42 L-20,32 L-22,28 L-21,21 L-9,8 Z " fill="#15803D" transform="translate(242,772)"/>
<path d="M0,0 L7,1 L80,74 L87,82 L92,88 L93,97 L86,106 L73,119 L68,119 L56,108 L-3,49 L-10,41 L-14,37 L-14,30 L-4,6 Z " fill="#1D4ED8" transform="translate(685,119)"/>
<path d="M0,0 L7,3 L16,10 L26,19 L28,22 L27,27 L19,35 L12,43 L-33,88 L-41,95 L-48,102 L-56,108 L-64,107 L-87,97 L-91,94 L-91,89 L-82,79 L-73,69 L-60,56 L-52,49 L-12,9 L-2,1 Z " fill="#15803D" transform="translate(209,232)"/>
<path d="M0,0 L21,0 L22,1 L22,98 L20,105 L8,111 L-12,117 L-17,113 L-19,107 L-19,1 Z " fill="#1D4ED8" transform="translate(649,517)"/>
<path d="M0,0 L7,1 L30,11 L37,15 L36,112 L32,115 L15,116 L3,115 L-3,111 L-5,102 L-5,7 L-1,1 Z " fill="#15803D" transform="translate(157,378)"/>
<path d="M0,0 L9,0 L17,7 L27,16 L53,42 L60,50 L72,63 L76,69 L75,73 L68,81 L60,89 L53,94 L46,94 L33,83 L14,64 L7,56 L-10,39 L-17,31 L-26,21 L-27,14 L-23,10 Z " fill="#15803D" transform="translate(191,646)"/>
<path d="M0,0 L7,0 L18,9 L73,64 L81,75 L80,80 L71,86 L51,94 L45,95 L-17,33 L-23,25 L-22,20 L-8,6 Z " fill="#1D4ED8" transform="translate(755,270)"/>
<path d="M0,0 L97,0 L104,3 L105,4 L104,13 L96,33 L90,41 L-4,41 L-8,39 L-9,37 L-9,15 L-7,5 L-2,1 Z " fill="#1D4ED8" transform="translate(520,151)"/>
<path d="M0,0 L5,1 L39,35 L46,43 L58,55 L65,63 L70,69 L69,78 L61,97 L57,104 L50,104 L42,98 L25,81 L18,73 L-2,53 L-9,45 L-17,37 L-22,30 L-23,26 L-19,18 L-2,1 Z " fill="#15803D" transform="translate(281,732)"/>
<path d="M0,0 L7,0 L15,7 L25,16 L38,29 L45,37 L69,61 L76,69 L80,75 L79,82 L68,94 L59,103 L54,103 L37,87 L-2,48 L-9,40 L-14,33 L-13,27 L-2,2 Z " fill="#1D4ED8" transform="translate(660,175)"/>
<path d="M0,0 L30,0 L32,2 L33,6 L33,93 L32,100 L27,104 L9,112 L3,114 L-3,114 L-6,110 L-7,106 L-8,66 L-8,50 L-7,10 L-4,3 Z " fill="#15803D" transform="translate(160,512)"/>
<path d="M0,0 L98,0 L105,3 L108,9 L108,37 L106,39 L102,40 L9,40 L3,32 L-5,13 L-6,4 Z " fill="#1D4ED8" transform="translate(384,152)"/>
<path d="M0,0 L40,0 L40,102 L38,109 L37,110 L27,110 L11,106 L1,101 L0,51 Z " fill="#1D4ED8" transform="translate(805,517)"/>
<path d="M0,0 L9,0 L19,1 L22,6 L22,76 L19,81 L10,85 L-9,91 L-15,90 L-18,86 L-19,79 L-19,12 L-17,6 L-12,1 Z " fill="#1D4ED8" transform="translate(706,517)"/>
<path d="M0,0 L53,0 L62,2 L66,6 L74,30 L74,36 L72,39 L69,40 L52,41 L-3,41 L-12,39 L-14,36 L-15,19 L-14,3 L-12,1 Z " fill="#15803D" transform="translate(518,760)"/>
<path d="M0,0 L5,1 L14,10 L22,17 L44,39 L49,44 L59,54 L60,56 L60,63 L54,71 L43,83 L39,86 L34,85 L26,78 L13,66 L-17,36 L-16,26 L-6,6 L-2,1 Z " fill="#1D4ED8" transform="translate(640,232)"/>
<path d="M0,0 L30,0 L33,3 L34,39 L34,75 L28,80 L13,86 L2,89 L-4,88 L-6,83 L-7,45 L-6,6 L-2,1 Z " fill="#15803D" transform="translate(217,512)"/>
<path d="M0,0 L50,0 L69,1 L71,3 L72,7 L72,35 L69,40 L68,41 L24,42 L-6,41 L-11,39 L-12,37 L-12,30 L-5,9 Z " fill="#15803D" transform="translate(412,760)"/>
<path d="M0,0 L9,1 L30,8 L36,12 L37,13 L37,82 L33,84 L1,84 L-3,80 L-4,76 L-4,5 L-2,1 Z " fill="#15803D" transform="translate(214,408)"/>
<path d="M0,0 L5,2 L12,9 L20,16 L53,49 L57,54 L57,61 L52,65 L35,74 L27,77 L22,76 L10,65 L-25,30 L-26,26 L-17,16 L-3,2 Z " fill="#1D4ED8" transform="translate(718,308)"/>
<path d="M0,0 L22,1 L24,8 L24,78 L21,84 L13,84 L-7,78 L-15,73 L-16,72 L-16,2 L-14,1 Z " fill="#1D4ED8" transform="translate(764,516)"/>
</svg>
