<?xml version="1.0" encoding="utf-8"?>
<!-- Svg Vector Icons : http://www.onlinewebfonts.com/icon -->
<!DOCTYPE svg PUBLIC "-//W3C//DTD SVG 1.1//EN" "http://www.w3.org/Graphics/SVG/1.1/DTD/svg11.dtd">
<svg version="1.1" xmlns="http://www.w3.org/2000/svg" xmlns:xlink="http://www.w3.org/1999/xlink" x="0px" y="0px" viewBox="0 0 256 256" enable-background="new 0 0 256 256" xml:space="preserve">
<style type="text/css">
	path { fill: black; }
</style>
<metadata> Svg Vector Icons : http://www.onlinewebfonts.com/icon </metadata>
<g><g><path class="fill-black dark:fill-white transition-colors duration-300" d="M140.1,246h-24.2c-1.2,0-2.2-1-2.2-2.2v-26.2c-6.2-0.9-12.4-2.5-18.3-4.7l-13,22.5c-0.3,0.5-0.8,0.9-1.3,1c-0.6,0.1-1.2,0.1-1.7-0.2l-20.9-12.1c-1.1-0.6-1.4-2-0.8-3l12.9-22.3c-4.8-3.9-9.3-8.3-13.2-13.1l-22.2,12.9c-0.5,0.3-1.1,0.4-1.7,0.2c-0.6-0.1-1.1-0.5-1.3-1l-12.2-20.9c-0.6-1.1-0.3-2.4,0.8-3L42.8,161c-2.4-6-4-12.3-5.1-18.7H12.2c-1.2,0-2.2-1-2.2-2.2v-24.2c0-1.2,1-2.2,2.2-2.2h25.5c1-6.3,2.7-12.5,5-18.5L20.6,82.4c-0.5-0.3-0.9-0.8-1-1.3c-0.1-0.6-0.1-1.2,0.2-1.7l12.1-20.9c0.6-1.1,2-1.4,3-0.8l22.2,12.9c4.1-5,8.8-9.6,13.8-13.6L58.2,34.5c-0.3-0.5-0.4-1.1-0.2-1.7c0.1-0.6,0.5-1.1,1-1.3l21-12c1.1-0.6,2.4-0.2,3,0.8l12.9,22.6c5.7-2.1,11.7-3.6,17.7-4.5V12.2c0-1.2,1-2.2,2.2-2.2H140c1.2,0,2.2,1,2.2,2.2v26.4c6.1,1,12.2,2.7,18,5l13.3-23c0.6-1.1,2-1.4,3-0.8l20.9,12.1c1.1,0.6,1.4,2,0.8,3l-13.4,23.3c4.6,3.8,8.9,8.1,12.7,12.8l23.3-13.6c1.1-0.6,2.4-0.3,3,0.8l12.2,20.9c0.3,0.5,0.4,1.1,0.2,1.7c-0.1,0.6-0.5,1.1-1,1.3l-23.4,13.6c2.2,5.8,3.8,11.8,4.8,18h27.1c1.2,0,2.2,1,2.2,2.2v24.2c0,1.2-1,2.2-2.2,2.2h-27.1c-1,6.1-2.5,12-4.7,17.7l23.4,13.6c1.1,0.6,1.4,2,0.8,3l-12.1,20.9c-0.6,1.1-2,1.4-3,0.8l-23.3-13.5c-3.9,4.9-8.4,9.4-13.3,13.3l13.3,23.3c0.6,1.1,0.2,2.4-0.8,3l-21,12c-0.5,0.3-1.1,0.4-1.7,0.2c-0.6-0.1-1.1-0.5-1.3-1l-13.2-23.1c-5.6,2.2-11.5,3.8-17.5,4.8v26.4C142.3,245,141.3,246,140.1,246z M118.1,241.6h19.7V202h-17.7l-2,2L118.1,241.6L118.1,241.6z M163.1,209.4l12.6,22.1l17.1-9.8l-19.6-34.3l-15.4,8.8l-0.7,2.6l5.6,9.9C163,208.9,163,209.1,163.1,209.4z M62.6,221.4l17.1,9.9l12.4-21.5c0-0.3,0.1-0.5,0.3-0.8l6.9-12l-15.2-8.7l-2.8,0.7L62.6,221.4z M97.7,209c5.2,1.9,10.5,3.3,16,4.1v-10.3c0-0.6,0.2-1.2,0.7-1.6l3.3-3.3c0.4-0.4,1-0.7,1.6-0.7h20.8c1.2,0,2.2,1,2.2,2.2v13.3c5.2-0.9,10.3-2.3,15.2-4.2l-4.7-8.3c-0.2-0.4-0.3-0.8-0.3-1.3c0-0.2,0-0.5,0.1-0.7l1.3-4.6c0.1-0.6,0.5-1.1,1-1.3l18.1-10.3c0.5-0.3,1.1-0.4,1.7-0.2c0.6,0.1,1.1,0.5,1.3,1l6.4,11.2c4.2-3.5,8-7.4,11.5-11.6l-10.8-6.3c-0.5-0.3-0.9-0.8-1-1.3c-0.1-0.2-0.1-0.5-0.1-0.7c0-0.4,0.1-0.9,0.3-1.3l12.1-20.9c0.6-1.1,2-1.4,3-0.8l10.8,6.3c1.8-4.9,3.1-10,4-15.2h-12.4c-1.2,0-2.2-1-2.2-2.2v-3.7h-15.5c-1.2,0-2.2-1-2.2-2.2v-4.2H177v4.2c0,1.2-1,2.2-2.2,2.2h-11c-1.2,0-2.2-1-2.2-2.2v-4.2h-3.9v4.2c0,1.2-1,2.2-2.2,2.2h-8.4l-0.3,1.2h0.9c0.2,0,0.4,0,0.6,0.1l5.8,1.8c0.8,0.3,1.4,1,1.5,1.8l0.5,3.3c0.5,3.4,0.8,10.4,0.8,10.7c0,1-0.6,1.9-1.6,2.2l-18.2,5.3c-0.7,0.2-1.5,0-2.1-0.5l-2.3-2H122l-2.3,2c-0.6,0.5-1.3,0.7-2.1,0.5l-18.2-5.3c-1-0.3-1.7-1.2-1.6-2.2c0-0.3,0.3-7.3,0.8-10.7l0.5-3.3c0.1-0.9-0.7-1.6,1.5-1.8l5.8-1.8c0.2-0.1,0.4-0.1,0.7-0.1h0.9l-0.8-3.5c0-0.2,0-0.3,0-0.5v-11.7c0-0.2,0-0.3,0-0.5l0.8-3.5H107c-0.2,0-0.4,0-0.7-0.1l-5.8-1.8c-0.8-0.3-1.4-1-1.5-1.8l-0.5-3.3c-0.5-3.4-0.8-10.4-0.8-10.7c0-1,0.6-2,1.6-2.2l18.2-5.2c0.7-0.2,1.5,0,2.1,0.5l2.3,2h10.8l2.3-2c0.6-0.5,1.3-0.7,2.1-0.5l18.2,5.2c1,0.3,1.7,1.2,1.6,2.2c0,0.3-0.3,7.3-0.8,10.7l-0.5,3.3c-0.1,0.9-0.7,1.6-1.5,1.8l-5.8,1.8c-0.2,0.1-0.4,0.1-0.7,0.1h-0.9l0.4,1.8h8.3c1.2,0,2.2,1,2.2,2.2v3.6h3.9v-3.6c0-1.2,1-2.2,2.2-2.2h11c1.2,0,2.2,1,2.2,2.2v3.6h2.9v-3.6c0-1.2,1-2.2,2.2-2.2h15.5v-0.7c0-0.6,0.2-1.2,0.7-1.6l3.3-3.3c0.4-0.4,1-0.6,1.6-0.6h9c-0.9-5.2-2.3-10.4-4.1-15.4l-10.7,6.2c-0.5,0.3-1.1,0.4-1.7,0.2c-0.6-0.1-1.1-0.5-1.3-1l-12.2-20.9c-0.2-0.4-0.3-0.8-0.3-1.3c0-0.2,0-0.5,0.1-0.7c0.1-0.6,0.5-1.1,1-1.3l10.6-6.2c-3.3-3.9-6.9-7.6-10.9-10.9L176.4,73c-0.3,0.5-0.8,0.9-1.3,1c-0.6,0.1-1.2,0.1-1.7-0.2l-18-10.4c-0.5-0.3-0.9-0.8-1-1.3l-1.2-4.6c-0.1-0.2-0.1-0.5-0.1-0.7c0-0.4,0.1-0.9,0.3-1.3l4.6-8c-5-1.9-10.3-3.3-15.6-4.3v13c0,1.2-1,2.2-2.2,2.2h-20.8c-0.6,0-1.2-0.2-1.6-0.7l-3.3-3.3c-0.4-0.4-0.6-1-0.6-1.6v-9.9c-5.2,0.8-10.4,2.1-15.3,3.9l6.5,11.4c0.2,0.4,0.3,0.8,0.3,1.3c0,0.8-0.3,1.7-1.1,2.1L86,71.9c-0.5,0.3-1.1,0.4-1.7,0.2l-4.6-1.3c-0.6-0.1-1.1-0.5-1.3-1l-5.1-9c-4.3,3.5-8.4,7.4-12,11.8L73,79.4c0.8,0.4,1.2,1.3,1.1,2.1c0,0.4-0.1,0.9-0.3,1.3l-12.1,20.9c-0.6,1.1-2,1.4-3,0.8l-12-7c-2,5.1-3.4,10.5-4.3,15.9h10.5c0.6,0,1.2,0.2,1.6,0.7l3.3,3.3c0.4,0.4,0.7,1,0.7,1.6v21.1c0,1.2-1,2.2-2.2,2.2H42.3c0.9,5.6,2.4,11,4.4,16.2l12.1-7.1c1.1-0.6,2.4-0.3,3,0.8l12.2,20.9c0.2,0.4,0.3,0.8,0.3,1.3c0,0.8-0.3,1.6-1.1,2.1l-11.9,6.9c3.5,4.1,7.3,7.9,11.5,11.3l5.3-9.2c0.3-0.5,0.8-0.9,1.3-1l4.6-1.2c0.6-0.1,1.2-0.1,1.7,0.2l18,10.4c0.5,0.3,0.9,0.8,1,1.3c0.1,0.2,0.1,0.5,0.1,0.7c0,0.4-0.1,0.9-0.3,1.3L97.7,209z M24.9,176.6l9.9,17l21-12.2c0.2-0.3,0.5-0.6,0.8-0.8l12.2-7.1L59,156.7L24.9,176.6z M199.3,180.6l22.1,12.8l9.9-17.1L197,156.5l-9.7,16.8l11.2,6.5C198.8,180,199.1,180.3,199.3,180.6z M102.2,153.8l15.4,4.4l2-1.8c0.4-0.4,0.9-0.6,1.5-0.6h4V154l-2.2,0c-0.4,0-0.7-0.1-1.1-0.3l-3.2-1.9c0,0-0.1,0-0.1,0l-1.8-1.1c-0.2-0.1-0.4-0.3-0.6-0.5l-6.5-8.1h-2.3l-4.1,1.3l-0.3,1.9C102.6,147.4,102.4,151.5,102.2,153.8z M129.6,155.9h4c0.5,0,1.1,0.2,1.5,0.6l2,1.8l15.4-4.4c-0.1-2.3-0.4-6.4-0.7-8.6l-0.3-1.9l-4.1-1.3h-2.3l-6.5,8.1c-0.2,0.2-0.4,0.4-0.6,0.5l-1.8,1.1c0,0-0.1,0-0.1,0l-3.2,1.9c-0.3,0.2-0.7,0.3-1.1,0.3l-2.2,0L129.6,155.9L129.6,155.9z M123.6,149.5l3.7,0.1l3.7-0.1l1.3-0.7l-3.1-10.8c0-0.2-0.1-0.4-0.1-0.6V118c0-0.2,0-0.4,0.1-0.6l3.1-10.8l-1.3-0.7l-3.7-0.1l-3.7,0.1l-1.3,0.7l3.1,10.8c0,0.2,0.1,0.4,0.1,0.6v19.3c0,0.2,0,0.4-0.1,0.6l-3.1,10.8L123.6,149.5z M133.6,137.1l2.6,9l5.8-7.2l1.3-5.5v-3.4h-9.6V137.1L133.6,137.1z M112.7,138.8l5.8,7.2l2.6-9v-7.2h-9.6v3.4L112.7,138.8z M215.9,137.8h25.6v-19.7h-37.5l-2,2v17.4h12.8C215.2,137.5,215.6,137.7,215.9,137.8z M14.5,137.8h24.1c0.3-0.2,0.7-0.3,1.1-0.3H54v-17.4l-2-2H14.5V137.8z M184.4,131.9h13.2v-7.9h-13.2V131.9z M166,131.9h6.5v-7.9H166V131.9z M147.9,131.9h5.3v-7.9h-5.3V131.9z M133.6,125.5h9.6v-3.4l-1.3-5.5l-5.8-7.2l-2.6,9V125.5L133.6,125.5z M111.4,125.5h9.6v-7.1l-2.6-9l-5.8,7.2l-1.3,5.5V125.5z M145.1,113.4h2.3l4.1-1.3l0.3-1.9c0.3-2.2,0.6-6.3,0.7-8.6l-15.4-4.4l-2,1.8c-0.4,0.4-0.9,0.6-1.5,0.6h-4v1.9l2.2,0c0.4,0,0.7,0.1,1.1,0.3l3.3,1.9c0,0,0,0,0,0l1.9,1.1c0.2,0.1,0.4,0.3,0.6,0.5L145.1,113.4z M107.3,113.4h2.3l6.5-8.1c0.2-0.2,0.4-0.4,0.6-0.5l1.9-1.1c0,0,0,0,0,0l3.3-1.9c0.3-0.2,0.7-0.3,1.1-0.3l2.2,0v-1.9h-4c-0.5,0-1.1-0.2-1.5-0.6l-2-1.8l-15.4,4.4c0.1,2.3,0.4,6.4,0.7,8.6l0.3,1.9L107.3,113.4z M45.7,91.8c0.4,0,0.7,0.1,1.1,0.3L59,99.2l9.7-16.8L34.7,62.6l-9.9,17.1L45.7,91.8z M187.2,82.2L197,99l10.9-6.4c0.3-0.2,0.7-0.3,1.1-0.3l22.2-12.9l-9.9-17L187.2,82.2z M158.3,59.7l15.3,8.9l6.4-11.1c0.1-0.2,0.3-0.5,0.6-0.6l12.9-22.2l-17.1-9.9l-18.7,32.4L158.3,59.7z M81.8,66.5l2.8,0.7l15.2-8.7L80.3,24.5l-17.1,9.8l12.2,21.5c0.2,0.2,0.4,0.4,0.5,0.6L81.8,66.5z M120.2,53.7h17.7V14.4h-19.7v37.2L120.2,53.7z"/></g></g>
</svg>